<svg width="90" height="179" viewBox="0 0 90 179" fill="none" xmlns="http://www.w3.org/2000/svg">
<g clip-path="url(#clip0_1576_357)">
<path d="M86.4055 39.6505L69.7612 40.9866C72.6084 66.9828 72.2927 96.7664 72.2762 100.929C72.3763 135.079 65.7902 147.889 57.6386 148.425C52.8925 148.738 49.0052 142.784 46.5903 138.838C46.542 138.759 46.4973 138.684 46.4537 138.61C45.8612 137.632 45.4088 136.803 45.119 136.254C45.0931 136.202 45.066 136.154 45.0401 136.106C45.0177 136.066 44.9918 136.022 44.9694 135.979C44.9612 135.961 44.9518 135.947 44.9482 135.93C44.9211 135.873 44.8952 135.825 44.8728 135.781C44.8599 135.754 44.8469 135.724 44.834 135.702C44.7892 135.609 44.7633 135.558 44.7633 135.558C49.9923 125.799 54.4451 115.52 56.4512 108.012C61.606 88.7293 62.1986 65.911 46.0449 59.9211C29.8913 53.9253 19.4332 64.6038 16.0476 72.9021C12.6621 81.1992 12.5608 100.789 18.5638 116.616C20.9033 122.796 23.7186 129.554 27.262 135.974C20.2624 147.912 13.0532 159.077 9.46979 164.844C8.10333 167.025 4.86742 172.161 0 179H18.069C24.2523 170.143 27.5247 164.901 27.5247 164.901C27.5247 164.901 31.3402 158.976 36.263 150.626C42.809 159.708 46.7929 164.789 57.9461 164.937C68.7163 165.079 79.5526 159.774 85.3836 135.588C88.7903 121.459 88.6442 100.974 88.6442 100.974C89.7068 75.6364 88.527 54.3917 86.4055 39.6505ZM36.3596 119.586C32.4604 112.064 29.479 104.42 28.6403 97.1005C27.1784 84.3477 29.3517 73.288 36.3548 73.1339C43.3544 72.9809 47.7577 82.5852 44.298 99.1007C43.2001 104.351 40.4472 111.66 36.3596 119.586Z" fill="#FFFFFF" fill-opacity="1"/>
</g>
<path d="M65.9185 27.7677L73.4817 3.07388C73.8323 1.9247 75.3786 1.73315 76.0035 2.75841L89.6385 25.2183C90.3052 26.3141 89.2559 27.6552 88.0264 27.2638L77.7909 24.0119C77.4072 23.8895 76.9935 23.9385 76.649 24.1471L67.9618 29.3634C66.8651 30.022 65.5417 28.9787 65.9175 27.7594L65.9185 27.7677Z" fill="white" fill-opacity="0.1"/>
<defs>
<clipPath id="clip0_1576_357">
<rect width="89" height="141" fill="white" transform="translate(0 38)"/>
</clipPath>
</defs>
</svg>
