<svg width="89" height="141" viewBox="0 0 89 141" fill="none" xmlns="http://www.w3.org/2000/svg">
<g clip-path="url(#clip0_1516_2048)">
<path d="M86.4055 1.6505L69.7612 2.98662C72.6084 28.9828 72.2927 58.7664 72.2762 62.9291C72.3763 97.0788 65.7902 109.889 57.6386 110.425C52.8925 110.738 49.0052 104.784 46.5903 100.838C46.542 100.759 46.4973 100.684 46.4537 100.61C45.8612 99.632 45.4088 98.8025 45.119 98.2542C45.0931 98.2025 45.066 98.1542 45.0401 98.106C45.0177 98.066 44.9918 98.0224 44.9694 97.9789C44.9612 97.9613 44.9518 97.9472 44.9482 97.9295C44.9211 97.873 44.8952 97.8248 44.8728 97.7813C44.8599 97.7542 44.8469 97.7236 44.834 97.7024C44.7892 97.6095 44.7633 97.5577 44.7633 97.5577C49.9923 87.7993 54.4451 77.5196 56.4512 70.012C61.606 50.7293 62.1986 27.911 46.0449 21.9211C29.8913 15.9253 19.4332 26.6038 16.0476 34.9021C12.6621 43.1992 12.5608 62.789 18.5638 78.6162C20.9033 84.7955 23.7186 91.5537 27.262 97.9742C20.2624 109.912 13.0532 121.077 9.46979 126.844C8.10333 129.025 4.86742 134.161 0 141H18.069C24.2523 132.143 27.5247 126.901 27.5247 126.901C27.5247 126.901 31.3402 120.976 36.263 112.626C42.809 121.708 46.7929 126.789 57.9461 126.937C68.7163 127.079 79.5526 121.774 85.3836 97.5883C88.7903 83.4589 88.6442 62.9738 88.6442 62.9738C89.7068 37.6364 88.527 16.3917 86.4055 1.6505ZM36.3596 81.5858C32.4604 74.0641 29.479 66.4199 28.6403 59.1005C27.1784 46.3477 29.3517 35.288 36.3548 35.1339C43.3544 34.9809 47.7577 44.5852 44.298 61.1007C43.2001 66.3505 40.4472 73.6605 36.3596 81.5858Z" fill="white" fill-opacity="0.1"/>
</g>
<defs>
<clipPath id="clip0_1516_2048">
<rect width="89" height="141" fill="white"/>
</clipPath>
</defs>
</svg>
